<svg xmlns="http://www.w3.org/2000/svg" viewBox="14.5 29.0 77 77" fill="#FF2D20">
    <path d="M23.441 78.99c-1.668.397-3.741.193-5.424-.057-.634-.093-1.873-.616-2.471-.38-.65.255-.936 2.861-.167 3.102 2.855.893 5.935.51 8.856.51.413 3.063 1.89 6.605 3.44 9.26l2.91-1.455-3.307-8.334c3.804-.513 7.635-3.073 10.318-5.69.921-.9 1.934-1.879 2.514-3.042h.132l1.19 19.183h12.304c0-1.811.236-3.508 1.03-5.16 2.662-5.542 9.923-6.806 14.313-2.508 2.103 2.059 2.78 4.83 2.78 7.668h7.673c.67 0 2.27.294 2.813-.136.372-.296.382-1.151.468-1.584.298-1.49.557-2.985.698-4.498.561-6.038.489-12.373-1.73-18.124 3.203 1.242 7.35 1.458 9.086-2.249 1.51-3.226-.845-7.575-4.72-6.568-1.756.457-3.904 4.185-1.058 4.686 1.586.279 1.229-.875 1.547-1.808.195-.573.827-.476 1.225-.192 1.23.882.835 2.563-.132 3.46-1.004.933-2.386 1.143-3.699.863-3.333-.712-4.844-4.128-6.808-6.526-2.591-3.166-5.964-5.764-9.596-7.639-6.72-3.468-14.294-5.754-21.696-7.237-3.237-.649-6.773-1.51-10.054-.671-4.003 1.024-6.429 4.502-8.44 7.874-3.784 6.345-5.658 13.788-4.944 21.166.195 2.007.297 4.162.949 6.086m56.355 10.054-4.763.132c-.509-1.199-.667-2.512-1.233-3.704-1.286-2.715-3.602-4.693-6.307-5.912-6.739-3.036-16.457 1.59-16.801 9.484h-6.218l-.781-11.377-.541-7.938c1.241-.053 2.44-.406 3.571-.907a9.7 9.7 0 0 0 2.909-2.005c5.198-5.198 2.29-13.512-4.496-15.476l-.794 3.043c1.243.483 2.52 1.196 3.371 2.25 2.47 3.064 1.375 7.553-2.18 9.216-1.634.764-3.473.71-5.16.175-2.487 6.064-7.39 11.064-13.89 12.568-2.153-8.322-.853-17.498 3.52-24.871 1.585-2.675 3.497-5.929 6.666-6.874 1.863-.555 3.944-.213 5.821.094 3.438.563 6.838 1.404 10.187 2.358 7.145 2.037 14.576 4.547 20.108 9.725 8.058 7.543 8.985 19.84 7.011 30.019"/>
</svg>
